<?xml version="1.0" encoding="UTF-8" standalone="no"?>
<!-- Created with Inkscape (http://www.inkscape.org/) -->

<svg
   width="512"
   height="512"
   viewBox="0 0 135.46666 135.46667"
   version="1.1"
   id="svg1"
   inkscape:version="1.3.2 (091e20e, 2023-11-25)"
   sodipodi:docname="Logo-Draft2.svg"
   xml:space="preserve"
   xmlns:inkscape="http://www.inkscape.org/namespaces/inkscape"
   xmlns:sodipodi="http://sodipodi.sourceforge.net/DTD/sodipodi-0.dtd"
   xmlns="http://www.w3.org/2000/svg"
   xmlns:svg="http://www.w3.org/2000/svg"><sodipodi:namedview
     id="namedview1"
     pagecolor="#515151"
     bordercolor="#000000"
     borderopacity="0.25"
     inkscape:showpageshadow="2"
     inkscape:pageopacity="0.0"
     inkscape:pagecheckerboard="0"
     inkscape:deskcolor="#d1d1d1"
     inkscape:document-units="mm"
     inkscape:zoom="1.4142136"
     inkscape:cx="239.7092"
     inkscape:cy="248.54803"
     inkscape:window-width="1392"
     inkscape:window-height="1212"
     inkscape:window-x="745"
     inkscape:window-y="31"
     inkscape:window-maximized="0"
     inkscape:current-layer="layer1" /><defs
     id="defs1" /><g
     inkscape:label="Layer 1"
     inkscape:groupmode="layer"
     id="layer1"><g
       style="fill:#ffffff;fill-opacity:1;stroke-width:1.00042;stroke-dasharray:none"
       id="g2"
       transform="matrix(0.39483325,0,0,0.39483325,21.854308,21.854328)"><g
         id="g1"
         style="fill:#ffffff;fill-opacity:1;stroke-width:1.00042;stroke-dasharray:none">
	<path
   d="M 198.637,108.169 C 183.915,63.045 139.22,86.395 152.219,32.175 154.147,24.13 152.729,4.007 134.18,0.513 134.082,0.49 132.262,0.231 132.16,0.227 113.948,-2.376 107.036,18.073 106.086,26.291 100.454,75.036 64.994,46.145 38.282,85.38 c -26.711,39.236 28.916,25.631 35.828,77.657 3.482,34.146 -4.982,38.088 -8.561,54.443 -7.149,32.688 52.416,8.922 77.042,-44.711 21.134,-48.041 70.767,-19.477 56.046,-64.6 z M 127.152,25.92 c -0.621,4.374 -3.705,7.554 -6.887,7.102 -3.181,-0.452 -5.256,-4.365 -4.634,-8.739 0.621,-4.374 3.705,-7.554 6.885,-7.102 3.182,0.452 5.258,4.365 4.636,8.739 z m 18.152,2.579 c -0.622,4.374 -3.705,7.554 -6.889,7.102 -3.181,-0.452 -5.255,-4.365 -4.634,-8.739 0.621,-4.374 3.704,-7.554 6.885,-7.102 3.184,0.452 5.26,4.365 4.638,8.739 z"
   id="path1"
   style="fill:#ffffff;fill-opacity:1;stroke-width:1.00042;stroke-dasharray:none" />
</g></g></g></svg>
